Coordinates
version=1
nRows=37
nColumns=34
inDegrees=no

Units are S.I. units (second, meters, Newtons, ...)
If the header above contains a line with 'inDegrees', this indicates whether rotational values are in degrees (yes) or radians (no).

endheader
time	pelvis_tilt	pelvis_list	pelvis_rotation	pelvis_tx	pelvis_ty	pelvis_tz	hip_flexion_r	hip_adduction_r	hip_rotation_r	knee_angle_r	ankle_angle_r	subtalar_angle_r	mtp_angle_r	hip_flexion_l	hip_adduction_l	hip_rotation_l	knee_angle_l	ankle_angle_l	subtalar_angle_l	mtp_angle_l	lumbar_extension	lumbar_bending	lumbar_rotation	arm_flex_r	arm_add_r	arm_rot_r	elbow_flex_r	pro_sup_r	arm_flex_l	arm_add_l	arm_rot_l	elbow_flex_l	pro_sup_l
0.9	0.134964	0.0451194	-0.0320477	0.962725	1.05731	-0.214251	0.39777	-0.155511	-0.144483	1.10701	-0.0766088	-0.173033	-0.0140314	-0.135829	0.0677201	-0.235882	0.220527	0.293687	0.251914	-0.0120724	-0.387715	-0.0429594	-0.0271458	-0.0532036	-0.174833	-0.220276	0.601902	1.96893	0.182527	-0.240632	0.0389403	0.917251	1.95888
0.91	0.135553	0.0427535	-0.0313857	0.975199	1.05732	-0.214131	0.403477	-0.150725	-0.150159	1.05819	-0.0651213	-0.170261	-0.0140539	-0.158475	0.067323	-0.238323	0.204022	0.29724	0.262233	-0.0121268	-0.389457	-0.0373963	-0.030003	-0.0563692	-0.175936	-0.224462	0.599857	1.96705	0.192426	-0.243499	0.0435318	0.938558	1.95469
0.92	0.136162	0.0409542	-0.0311567	0.987721	1.05715	-0.213951	0.40653	-0.146159	-0.15629	1.00365	-0.0554208	-0.168843	-0.0140765	-0.181576	0.0677876	-0.240815	0.186739	0.299605	0.271954	-0.0121813	-0.391244	-0.0325123	-0.0326391	-0.0592697	-0.177119	-0.227991	0.597986	1.96491	0.201451	-0.246818	0.0486905	0.960435	1.94985
0.93	0.136633	0.039682	-0.0312837	1.0003	1.05681	-0.213708	0.406994	-0.141681	-0.163146	0.943175	-0.0473558	-0.168021	-0.014099	-0.204893	0.0690621	-0.243148	0.168806	0.300752	0.280944	-0.0122357	-0.392906	-0.0282874	-0.0350903	-0.0619281	-0.178326	-0.230906	0.596258	1.96263	0.209558	-0.250548	0.0542615	0.982828	1.94456
0.94	0.136815	0.03889	-0.0316884	1.01294	1.05627	-0.213395	0.404934	-0.137143	-0.17097	0.876589	-0.0405351	-0.166452	-0.0141215	-0.228206	0.0710688	-0.245101	0.150346	0.300679	0.289064	-0.0122902	-0.394269	-0.0246915	-0.0373915	-0.0643867	-0.179496	-0.233301	0.594657	1.9603	0.216691	-0.254626	0.0600469	1.00566	1.93911
0.95	0.136586	0.038536	-0.0322919	1.02566	1.05551	-0.213007	0.400419	-0.132398	-0.179921	0.803853	-0.0343533	-0.162277	-0.0141441	-0.251338	0.0737136	-0.246447	0.131487	0.299411	0.296162	-0.0123447	-0.395176	-0.0216881	-0.0395785	-0.0667051	-0.180561	-0.235308	0.593187	1.95799	0.222798	-0.258972	0.0658308	1.02885	1.93378
0.96	0.135863	0.038596	-0.0330112	1.03847	1.05454	-0.212541	0.393538	-0.12732	-0.190001	0.725193	-0.0280635	-0.15333	-0.0141666	-0.274159	0.0768895	-0.246965	0.112372	0.297007	0.302085	-0.0123992	-0.395502	-0.0192337	-0.0416896	-0.0689557	-0.181459	-0.237079	0.591866	1.95576	0.227843	-0.2635	0.0714102	1.05225	1.92887
0.97	0.13462	0.0390705	-0.0337582	1.0514	1.05333	-0.211999	0.384439	-0.121832	-0.200997	0.641242	-0.020886	-0.137473	-0.0141892	-0.296564	0.0804769	-0.246467	0.0931917	0.293577	0.306707	-0.0124536	-0.395165	-0.0172773	-0.0437677	-0.0712168	-0.18213	-0.238769	0.59073	1.95359	0.231815	-0.26813	0.0766248	1.07572	1.92463
0.98	0.132876	0.0399566	-0.0344385	1.06445	1.0519	-0.211385	0.373377	-0.115936	-0.212427	0.553195	-0.0121361	-0.113017	-0.0142117	-0.318451	0.0843456	-0.244843	0.0742176	0.289297	0.309977	-0.0125081	-0.394131	-0.0157713	-0.0458578	-0.073565	-0.182524	-0.240525	0.589821	1.95145	0.234742	-0.272791	0.0813804	1.09908	1.92123
0.99	0.130692	0.0412366	-0.0349528	1.07765	1.05023	-0.210708	0.360758	-0.109731	-0.223535	0.462914	-0.00135161	-0.07916	-0.0142342	-0.339697	0.0883488	-0.242114	0.0558423	0.284434	0.311984	-0.0125626	-0.392427	-0.014669	-0.0479959	-0.0760639	-0.18261	-0.242471	0.589179	1.94927	0.236692	-0.277425	0.0856582	1.12217	1.91873
1	0.128159	0.0428753	-0.0352087	1.09099	1.04835	-0.209976	0.34717	-0.103405	-0.233342	0.372969	0.0116039	-0.0363519	-0.0142568	-0.360135	0.0923058	-0.238485	0.0386032	0.279358	0.313007	-0.0126171	-0.390141	-0.0139044	-0.0501943	-0.0787519	-0.18238	-0.244697	0.588839	1.94701	0.237777	-0.281983	0.089508	1.14479	1.9171
1.01	0.125397	0.0448001	-0.0351341	1.10446	1.04626	-0.209197	0.333373	-0.0972087	-0.240778	0.286534	0.0264809	0.013528	-0.0142793	-0.379547	0.0959793	-0.234378	0.0231869	0.274542	0.313547	-0.0126716	-0.387429	-0.013367	-0.052427	-0.0816311	-0.181857	-0.247249	0.588819	1.94464	0.238145	-0.286409	0.0930237	1.16678	1.91624
1.02	0.122543	0.0468702	-0.0346874	1.11805	1.044	-0.208379	0.320237	-0.0913934	-0.244875	0.207151	0.0426417	0.0672621	-0.0143019	-0.397676	0.0990547	-0.230443	0.0104001	0.270539	0.314325	-0.0127262	-0.384512	-0.0128728	-0.0546176	-0.0846586	-0.181105	-0.250121	0.589117	1.94215	0.237963	-0.29063	0.0963092	1.18794	1.91602
1.03	0.119726	0.0488169	-0.0338612	1.13172	1.04161	-0.207524	0.308632	-0.0861447	-0.245008	0.138329	0.0591177	0.12069	-0.0143244	-0.414268	0.101134	-0.227505	0.00110595	0.267934	0.316214	-0.0127807	-0.381678	-0.0121544	-0.0566397	-0.0877455	-0.180236	-0.253242	0.589702	1.93959	0.237398	-0.294538	0.0994416	1.20809	1.91636
1.04	0.117116	0.0502667	-0.0326875	1.14543	1.03916	-0.20663	0.299305	-0.0815001	-0.241087	0.0830712	0.0747095	0.169339	-0.0143469	-0.429105	0.101735	-0.226457	-0.0038815	0.267257	0.320111	-0.0128352	-0.379232	-0.0108394	-0.0583281	-0.0907658	-0.179398	-0.25648	0.590512	1.93698	0.236582	-0.297993	0.102443	1.22705	1.91723
1.05	0.114894	0.0508084	-0.0312233	1.15915	1.03668	-0.205698	0.292744	-0.0772862	-0.233629	0.0434253	0.0881011	0.209118	-0.0143695	-0.442061	0.10033	-0.228116	-0.00390853	0.268899	0.326755	-0.0128898	-0.377465	-0.00845928	-0.0594926	-0.0935739	-0.178768	-0.259642	0.591452	1.93439	0.235578	-0.300826	0.105262	1.24464	1.91872
1.06	0.113267	0.0499735	-0.0295343	1.17289	1.03427	-0.204722	0.289113	-0.0731363	-0.223638	0.0201824	0.0979799	0.236873	-0.014392	-0.453123	0.0964217	-0.233054	0.00141909	0.27301	0.33654	-0.0129443	-0.376594	-0.00453453	-0.0599546	-0.0960288	-0.178527	-0.262501	0.592395	1.93188	0.234356	-0.302865	0.107782	1.26067	1.92102
1.07	0.112373	0.0473683	-0.0276959	1.18664	1.03197	-0.203702	0.288253	-0.0685483	-0.212359	0.0128867	0.103184	0.250725	-0.0144146	-0.462411	0.0896206	-0.241455	0.012185	0.279428	0.349339	-0.0129989	-0.376754	0.0013748	-0.0595764	-0.0980154	-0.178834	-0.264821	0.593192	1.92953	0.232788	-0.30395	0.109837	1.27497	1.92438
1.08	0.112297	0.0427437	-0.0257977	1.20043	1.02985	-0.202638	0.289798	-0.0630058	-0.201037	0.0200879	0.102905	0.250246	-0.0144371	-0.470153	0.0797256	-0.253026	0.0281542	0.287633	0.364387	-0.0130534	-0.377979	0.00959683	-0.0582804	-0.0994511	-0.179807	-0.266398	0.593687	1.92742	0.230659	-0.303956	0.111239	1.28739	1.929
1.09	0.11304	0.0360016	-0.0239397	1.21429	1.02792	-0.201528	0.293262	-0.0561032	-0.190702	0.0396165	0.0968592	0.236405	-0.0144597	-0.476636	0.0667922	-0.266953	0.0488184	0.296733	0.38023	-0.013108	-0.380199	0.0202639	-0.0560686	-0.100295	-0.181503	-0.267096	0.593735	1.92564	0.227703	-0.302806	0.111818	1.29779	1.93505
1.1	0.114515	0.0272192	-0.0222088	1.22825	1.0262	-0.200371	0.29806	-0.0476105	-0.182005	0.0688018	0.0853757	0.211316	-0.0144822	-0.482094	0.0511476	-0.281991	0.0735011	0.305512	0.394826	-0.0131626	-0.38321	0.0332728	-0.0530217	-0.100555	-0.183905	-0.266887	0.593223	1.92433	0.223645	-0.300475	0.111449	1.30603	1.94248
1.11	0.116538	0.0166615	-0.0206732	1.24237	1.02471	-0.199164	0.303583	-0.037495	-0.175152	0.104706	0.0694076	0.177809	-0.0145048	-0.486601	0.0333289	-0.296754	0.101546	0.31257	0.40592	-0.0132171	-0.386695	0.0483028	-0.0492817	-0.100283	-0.186916	-0.265868	0.59209	1.92361	0.218243	-0.296995	0.110074	1.31201	1.95108
1.12	0.118839	0.00475307	-0.0193835	1.25665	1.02344	-0.197901	0.309294	-0.0259231	-0.169965	0.144464	0.0504679	0.139002	-0.0145273	-0.489986	0.014001	-0.309959	0.132476	0.31646	0.411384	-0.0132717	-0.390245	0.0648523	-0.0450275	-0.0995682	-0.190367	-0.264264	0.590344	1.92359	0.211328	-0.292446	0.107714	1.31563	1.96046
1.13	0.121084	-0.00797654	-0.0183703	1.27113	1.02239	-0.196573	0.314808	-0.01323	-0.166013	0.185595	0.0304618	0.0979003	-0.0145499	-0.491807	-0.00614246	-0.320627	0.166103	0.315804	0.40951	-0.0133263	-0.393411	0.0822944	-0.0404501	-0.0985252	-0.194033	-0.2624	0.588068	1.92437	0.20283	-0.286954	0.10447	1.31683	1.97006
1.14	0.122915	-0.0209672	-0.0176372	1.28578	1.02154	-0.195173	0.319912	0.000137214	-0.162762	0.226174	0.0114336	0.0570806	-0.0145724	-0.491387	-0.0264778	-0.328167	0.202549	0.309395	0.399197	-0.0133809	-0.395743	0.0999489	-0.0357371	-0.0972826	-0.197658	-0.260661	0.58543	1.92599	0.192789	-0.280683	0.100504	1.31557	1.97931
1.15	0.123983	-0.0336977	-0.0171463	1.3006	1.02089	-0.193694	0.324528	0.0136945	-0.159716	0.264868	-0.00471989	0.0185027	-0.014595	-0.487903	-0.0465366	-0.332368	0.242196	0.296251	0.380016	-0.0134355	-0.396851	0.117167	-0.0310674	-0.0959728	-0.200986	-0.259427	0.582661	1.9284	0.181346	-0.273824	0.0960304	1.31184	1.98764
1.16	0.123994	-0.0457333	-0.0167977	1.31553	1.02043	-0.192134	0.328648	0.027002	-0.15653	0.300852	-0.0165094	-0.016548	-0.0146175	-0.480515	-0.0660649	-0.333319	0.285563	0.275671	0.352186	-0.0134901	-0.39645	0.133421	-0.0266105	-0.0947199	-0.203785	-0.259017	0.580043	1.93144	0.168729	-0.266588	0.0912797	1.30569	1.99464
1.17	0.122755	-0.0567715	-0.0164135	1.33052	1.02013	-0.190497	0.332264	0.0397237	-0.153075	0.333663	-0.0230282	-0.0474091	-0.0146401	-0.468482	-0.0850388	-0.331288	0.333163	0.247268	0.316481	-0.0135447	-0.394378	0.148364	-0.0225327	-0.0936276	-0.205883	-0.259631	0.577872	1.93484	0.155229	-0.259187	0.0864812	1.29718	2.0001
1.18	0.120199	-0.0666689	-0.0157336	1.34552	1.01999	-0.188796	0.33532	0.0516563	-0.149457	0.363072	-0.0240119	-0.0739181	-0.0146626	-0.45127	-0.103632	-0.326606	0.385351	0.21101	0.274102	-0.0135993	-0.390615	0.161857	-0.0190021	-0.0927681	-0.207177	-0.261308	0.576424	1.93825	0.141183	-0.251823	0.0818398	1.28638	2.00402
1.19	0.116394	-0.0754417	-0.0144297	1.36047	1.02	-0.187053	0.337694	0.0627223	-0.145983	0.388981	-0.0197817	-0.0962565	-0.0146851	-0.428617	-0.122137	-0.319562	0.442196	0.167255	0.226538	-0.0136539	-0.385264	0.173952	-0.0161887	-0.0921752	-0.207651	-0.26392	0.575922	1.94126	0.126947	-0.244677	0.0775248	1.27336	2.00663
1.2	0.111528	-0.0832328	-0.0121445	1.37531	1.02016	-0.1853	0.339212	0.072938	-0.143097	0.411377	-0.0110995	-0.114795	-0.0147077	-0.400567	-0.140865	-0.310358	0.503409	0.116796	0.175441	-0.0137085	-0.378542	0.184841	-0.0142533	-0.0918409	-0.20737	-0.267186	0.576507	1.94348	0.112873	-0.237897	0.0736658	1.25819	2.00827
1.21	0.105883	-0.0902494	-0.00854678	1.39	1.02045	-0.183572	0.339662	0.082369	-0.14129	0.430311	0.00102102	-0.129958	-0.0147302	-0.367459	-0.16004	-0.299102	0.568321	0.0608963	0.122528	-0.0137631	-0.370748	0.194787	-0.0133256	-0.091717	-0.206472	-0.270702	0.578219	1.94458	0.0992915	-0.231596	0.0703556	1.24094	2.00931
1.22	0.0997979	-0.0966969	-0.00339125	1.4045	1.02088	-0.181906	0.338823	0.0910855	-0.141008	0.445892	0.0155029	-0.142128	-0.0147527	-0.329893	-0.179711	-0.285855	0.635927	0.00130787	0.0695214	-0.0138177	-0.362248	0.204047	-0.0134743	-0.0917215	-0.205147	-0.274003	0.581005	1.94436	0.0864851	-0.225851	0.0676554	1.22166	2.01009
1.23	0.0936344	-0.102726	0.00342719	1.41879	1.02144	-0.180332	0.336478	0.0991292	-0.142573	0.458287	0.0313574	-0.151582	-0.0147752	-0.288675	-0.199704	-0.27069	0.704975	-0.0597446	0.0181084	-0.0138723	-0.353441	0.212806	-0.014676	-0.0917491	-0.203617	-0.276618	0.584727	1.94277	0.07467	-0.220708	0.0655983	1.20045	2.01081
1.24	0.0877453	-0.108402	0.0118387	1.43285	1.02214	-0.178872	0.332436	0.106497	-0.146121	0.467695	0.0477792	-0.158477	-0.0147978	-0.24474	-0.219626	-0.253764	0.774086	-0.119644	-0.0300826	-0.013927	-0.344731	0.221128	-0.0167944	-0.0916836	-0.202107	-0.278126	0.58919	1.93989	0.0639799	-0.21619	0.0641886	1.17744	2.01155
1.25	0.0824392	-0.113692	0.0215928	1.44668	1.023	-0.177536	0.326543	0.113143	-0.151585	0.474334	0.0641837	-0.162866	-0.0148203	-0.199068	-0.238909	-0.235358	0.841889	-0.17554	-0.0735099	-0.0139816	-0.336502	0.228952	-0.0195734	-0.0914123	-0.200825	-0.278204	0.59418	1.93593	0.0544589	-0.212295	0.0633966	1.15281	2.0123
1.26	0.0779355	-0.118477	0.0322823	1.46029	1.02401	-0.17632	0.318699	0.118996	-0.1587	0.478416	0.0801955	-0.164736	-0.0148428	-0.15261	-0.256896	-0.215888	0.907136	-0.224582	-0.110759	-0.0140362	-0.329082	0.2361	-0.0226521	-0.090838	-0.19994	-0.27666	0.599496	1.9312	0.0460642	-0.209009	0.063151	1.12681	2.01299
